<svg id="Layer_1" data-name="Layer 1" xmlns="http://www.w3.org/2000/svg" viewBox="0 0 81.84 108.72"><defs><style>.cls-1,.cls-2,.cls-3,.cls-4,.cls-5{stroke:#000;}.cls-1,.cls-2,.cls-3,.cls-4,.cls-5,.cls-6{stroke-miterlimit:10;}.cls-2{fill:#fff;}.cls-3{fill:#f1c300;}.cls-4{fill:#0d41a0;}.cls-5,.cls-6{fill:none;}.cls-6{stroke:#fff;}.cls-7{fill:#f19c00;}</style></defs><title>rocket</title><path class="cls-1" d="M103.8,45.29H95.45A42.11,42.11,0,0,1,99.7,41.4,48,48,0,0,1,103.8,45.29Z" transform="translate(-59.16 -40.75)"/><path class="cls-2" d="M113.84,127.84H85.55V67.48a33.17,33.17,0,0,1,.48-4.1h27.28a33.89,33.89,0,0,1,.53,4.1C115.09,83.59,114.06,120.3,113.84,127.84Z" transform="translate(-59.16 -40.75)"/><path class="cls-2" d="M83,137.42H73.09V88.31c0-1.69.15-3.57.38-5.56A46,46,0,0,1,77,69.1H79a48.25,48.25,0,0,1,3.56,13.57c.31,2.55.39,4.57.43,5.64C83.39,101.43,83,131.3,83,137.42Z" transform="translate(-59.16 -40.75)"/><polygon points="52.86 102.21 41.51 102.21 43.65 92.63 51.03 92.63 52.86 102.21"/><polygon points="39.47 102.21 28.12 102.21 30.26 92.63 37.64 92.63 39.47 102.21"/><path class="cls-2" d="M125.72,79.08h-8a43.62,43.62,0,0,1,3-10h1.93A46.16,46.16,0,0,1,125.72,79.08Z" transform="translate(-59.16 -40.75)"/><path class="cls-2" d="M126.7,137.42h-9.87V92.83h10C127.06,107.3,126.77,131.92,126.7,137.42Z" transform="translate(-59.16 -40.75)"/><path class="cls-2" d="M140,133.38H60A23.14,23.14,0,0,1,63,128.7c7.26-8.61,17.05-7.18,22.51-15.3A17.11,17.11,0,0,0,88,107.63c.31-6.81.63-13.64.94-20.45a18.18,18.18,0,0,1,.84-5.24,24.91,24.91,0,0,1,1.36-3.36c1.69-3.45,4.58-7.41,8.47-7.44,4.06,0,7,4.23,8.68,7.44a21.39,21.39,0,0,1,1.38,3.29c.35,1.19.59,2.52.59,2.52.08.48.14.92.19,1.31.09.72.14,1.42.14,1.48.06.77.67,9.49,1.51,21.46a14.66,14.66,0,0,0,2.07,6.2c4.73,7.63,14.4,6.27,23,15.16A30.66,30.66,0,0,1,140,133.38Z" transform="translate(-59.16 -40.75)"/><path class="cls-1" d="M79,69.1H77c.36-.8.7-1.46,1-2C78.32,67.7,78.65,68.36,79,69.1Z" transform="translate(-59.16 -40.75)"/><path class="cls-1" d="M122.71,69.1h-1.93c.37-.8.7-1.46,1-2C122.06,67.7,122.38,68.36,122.71,69.1Z" transform="translate(-59.16 -40.75)"/><path d="M108.29,78.58H91.14c1.69-3.45,4.58-7.41,8.47-7.44C103.67,71.12,106.65,75.37,108.29,78.58Z" transform="translate(-59.16 -40.75)"/><rect x="15.46" y="96.67" width="6.35" height="1.82"/><rect x="59.53" y="96.67" width="6.35" height="1.82"/><path class="cls-3" d="M126.81,92.83h-10V88.31c0-1.69.16-3.57.38-5.56.15-1.3.34-2.52.55-3.67h8c.22,1.13.4,2.33.56,3.59.31,2.55.38,4.57.42,5.64C126.74,89.66,126.77,91.18,126.81,92.83Z" transform="translate(-59.16 -40.75)"/><path class="cls-3" d="M83.12,92.83h-10V88.31c0-1.69.16-3.57.38-5.56.16-1.3.34-2.52.55-3.67h8c.22,1.13.41,2.33.56,3.59.31,2.55.38,4.57.42,5.64C83.05,89.66,83.09,91.18,83.12,92.83Z" transform="translate(-59.16 -40.75)"/><path class="cls-4" d="M113.31,63.38H86c.16-.89.36-1.81.62-2.75a35.74,35.74,0,0,1,8.8-15.34h8.35a37.3,37.3,0,0,1,8.83,15.25C112.93,61.56,113.14,62.51,113.31,63.38Z" transform="translate(-59.16 -40.75)"/><line class="cls-5" x1="29.44" y1="53.59" x2="28.93" y2="92.63"/><line class="cls-5" x1="52.03" y1="53.59" x2="51.52" y2="92.63"/><path d="M92.26,89.15a6.59,6.59,0,0,1,2.29-4.51,8.08,8.08,0,0,1,5-2,7.79,7.79,0,0,1,5.14,1.65,6.33,6.33,0,0,1,2.5,4.43l-.89.46a14,14,0,0,0-3.44-1.83,9.55,9.55,0,0,0-3.19-.54,8.67,8.67,0,0,0-3.21.67,11.92,11.92,0,0,0-3.3,2.07Z" transform="translate(-59.16 -40.75)"/><line class="cls-6" x1="36.28" y1="42.83" x2="36.28" y2="48.6"/><line class="cls-6" x1="40.46" y1="42.83" x2="40.46" y2="48.6"/><line class="cls-6" x1="44.64" y1="42.83" x2="44.64" y2="48.6"/><polygon class="cls-7" points="16.66 98.49 11.11 106.98 15.88 104.84 17.75 108.72 18.56 106.04 22.83 108.19 19.66 98.49 16.66 98.49"/><polygon class="cls-7" points="63.81 98.64 68.61 106.89 64.48 104.8 62.86 108.58 62.17 105.97 58.47 108.06 61.21 98.64 63.81 98.64"/></svg>